<svg width="23" height="18" viewBox="0 0 23 18" fill="none" xmlns="http://www.w3.org/2000/svg">
<path d="M18.5774 10.9312C17.6749 11.4663 16.6383 11.7478 15.5822 11.7445C14.6973 11.7376 13.8225 11.5611 13.0075 11.2249C12.3794 12.0899 12.0433 13.1244 12.0458 14.1844V16.8915C12.046 16.9921 12.025 17.0918 11.9841 17.1842C11.9432 17.2766 11.8833 17.3599 11.808 17.4287C11.7327 17.4976 11.6437 17.5506 11.5465 17.5845C11.4494 17.6185 11.3461 17.6325 11.2431 17.6258C11.0496 17.6094 10.8696 17.5222 10.7393 17.3818C10.6089 17.2413 10.5378 17.058 10.5402 16.8685V15.7266L6.90597 12.1814C6.36573 12.378 5.79437 12.4809 5.21778 12.4853C4.42399 12.4873 3.64505 12.2754 2.96686 11.873C0.916381 10.6576 -0.187434 7.86058 0.0261777 4.38794C0.036933 4.20828 0.114941 4.03873 0.245392 3.91148C0.375842 3.78422 0.549653 3.70813 0.733824 3.69764C4.2937 3.49293 7.16098 4.56603 8.40313 6.56626C8.89115 7.35027 9.10421 8.26798 9.01008 9.18061C9.00423 9.25132 8.97751 9.31886 8.93314 9.37507C8.88878 9.43128 8.82867 9.47375 8.76009 9.49734C8.69151 9.52094 8.61739 9.52465 8.54669 9.50802C8.476 9.4914 8.41175 9.45516 8.36172 9.40367L6.55497 7.55857C6.41264 7.42667 6.22312 7.35422 6.02681 7.35667C5.83051 7.35912 5.64295 7.43628 5.50413 7.5717C5.36531 7.70712 5.28621 7.89008 5.28369 8.08157C5.28118 8.27307 5.35545 8.45795 5.49067 8.59679L10.5609 13.6685C10.5665 13.5969 10.5731 13.5253 10.5806 13.4546C10.7453 12.0931 11.3612 10.8212 12.3347 9.83236L17.0953 4.92495C17.2366 4.78727 17.316 4.6005 17.3161 4.40571C17.3162 4.21092 17.2369 4.02407 17.0958 3.88628C16.9547 3.74848 16.7632 3.67102 16.5635 3.67093C16.3638 3.67085 16.1723 3.74814 16.031 3.88582L11.42 8.64268C11.3739 8.69037 11.3155 8.72513 11.2509 8.74335C11.1863 8.76157 11.1179 8.76258 11.0528 8.74627C10.9876 8.72997 10.9282 8.69695 10.8806 8.65064C10.833 8.60434 10.7989 8.54644 10.782 8.48296C10.336 6.87837 10.5327 5.28112 11.3843 3.90968C13.0649 1.20354 16.9758 -0.245 21.8465 0.0340592C22.0307 0.044551 22.2045 0.120648 22.3349 0.247902C22.4654 0.375156 22.5434 0.544707 22.5542 0.724365C22.8365 5.47664 21.3515 9.29168 18.5774 10.9312Z" fill="#749C75"/>
</svg>
